<?xml version="1.0" encoding="UTF-8"?>
<svg xmlns="http://www.w3.org/2000/svg" xmlns:xlink="http://www.w3.org/1999/xlink" width="3000px" height="962px" viewBox="0 0 2999 962" version="1.1">
<defs>
<clipPath id="clip1">
  <path d="M 1469.996094 499.125 L 1506 499.125 L 1506 532.085938 L 1469.996094 532.085938 Z M 1469.996094 499.125 "/>
</clipPath>
</defs>
<g id="surface1">
<path style=" stroke:none;fill-rule:nonzero;fill:rgb(100%,100%,100%);fill-opacity:1;" d="M 339.054688 635.695312 L 339.054688 428.53125 L 361.453125 428.53125 L 361.453125 452.4375 L 364.203125 452.4375 C 365.90625 449.820312 368.265625 446.480469 371.277344 442.417969 C 374.320312 438.324219 378.710938 434.65625 384.441406 431.414062 C 390.15625 428.1875 397.933594 426.566406 407.753906 426.566406 C 420.410156 426.566406 431.59375 429.746094 441.289062 436.066406 C 450.980469 442.402344 458.527344 451.390625 463.949219 463.050781 C 469.351562 474.707031 472.070312 488.445312 472.070312 504.246094 C 472.070312 520.195312 469.351562 534.011719 463.949219 545.703125 C 458.527344 557.363281 450.996094 566.386719 441.351562 572.753906 C 431.742188 579.140625 420.671875 582.316406 408.148438 582.316406 C 398.457031 582.316406 390.695312 580.695312 384.898438 577.46875 C 379.085938 574.246094 374.617188 570.558594 371.472656 566.402344 C 368.328125 562.210938 365.90625 558.769531 364.203125 556.054688 L 362.238281 556.054688 L 362.238281 635.695312 Z M 361.847656 503.851562 C 361.847656 520.929688 365.546875 534.816406 372.980469 545.507812 C 380.394531 556.167969 391.070312 561.488281 405.003906 561.488281 C 414.648438 561.488281 422.71875 558.933594 429.238281 553.824219 C 435.738281 548.683594 440.648438 541.757812 443.972656 533.0625 C 447.28125 524.335938 448.949219 514.59375 448.949219 503.851562 C 448.949219 493.242188 447.3125 483.679688 444.039062 475.164062 C 440.796875 466.617188 435.933594 459.839844 429.433594 454.863281 C 422.917969 449.851562 414.78125 447.332031 405.003906 447.332031 C 390.859375 447.332031 380.117188 452.554688 372.78125 462.984375 C 365.480469 473.382812 361.847656 487.003906 361.847656 503.851562 Z M 361.847656 503.851562 "/>
<path style=" stroke:none;fill-rule:nonzero;fill:rgb(100%,100%,100%);fill-opacity:1;" d="M 507.351562 579.171875 L 507.351562 428.53125 L 529.75 428.53125 L 529.75 451.261719 L 531.320312 451.261719 C 533.972656 443.84375 538.917969 437.816406 546.125 433.183594 C 553.328125 428.515625 561.464844 426.175781 570.550781 426.175781 C 574.742188 426.175781 578.378906 426.683594 581.488281 427.679688 C 584.632812 428.648438 587.382812 429.972656 589.742188 431.675781 L 581.945312 451.261719 C 580.277344 450.441406 578.363281 449.785156 576.183594 449.296875 C 573.988281 448.769531 571.46875 448.507812 568.585938 448.507812 C 557.585938 448.507812 548.480469 451.882812 541.277344 458.59375 C 534.105469 465.277344 530.535156 473.691406 530.535156 483.8125 L 530.535156 579.171875 Z M 507.351562 579.171875 "/>
<path style=" stroke:none;fill-rule:nonzero;fill:rgb(100%,100%,100%);fill-opacity:1;" d="M 674.507812 582.316406 C 660.886719 582.316406 648.964844 579.089844 638.75 572.625 C 628.53125 566.121094 620.558594 557.066406 614.84375 545.441406 C 609.113281 533.785156 606.265625 520.195312 606.265625 504.640625 C 606.265625 488.917969 609.113281 475.214844 614.84375 463.507812 C 620.558594 451.816406 628.53125 442.730469 638.75 436.261719 C 648.964844 429.808594 660.886719 426.566406 674.507812 426.566406 C 688.082031 426.566406 699.984375 429.808594 710.203125 436.261719 C 720.449219 442.730469 728.441406 451.816406 734.171875 463.507812 C 739.886719 475.214844 742.75 488.917969 742.75 504.640625 C 742.75 520.195312 739.886719 533.785156 734.171875 545.441406 C 728.441406 557.066406 720.449219 566.121094 710.203125 572.625 C 699.984375 579.089844 688.082031 582.316406 674.507812 582.316406 Z M 674.507812 561.488281 C 684.855469 561.488281 693.335938 558.851562 699.984375 553.5625 C 706.664062 548.292969 711.59375 541.347656 714.785156 532.738281 C 718.011719 524.089844 719.632812 514.726562 719.632812 504.640625 C 719.632812 494.550781 718.011719 485.171875 714.785156 476.476562 C 711.59375 467.796875 706.664062 460.757812 699.984375 455.386719 C 693.335938 450.015625 684.855469 447.332031 674.507812 447.332031 C 664.160156 447.332031 655.648438 450.015625 648.964844 455.386719 C 642.320312 460.757812 637.390625 467.796875 634.164062 476.476562 C 630.972656 485.171875 629.382812 494.550781 629.382812 504.640625 C 629.382812 514.726562 630.972656 524.089844 634.164062 532.738281 C 637.390625 541.347656 642.320312 548.292969 648.964844 553.5625 C 655.648438 558.851562 664.160156 561.488281 674.507812 561.488281 Z M 674.507812 561.488281 "/>
<path style=" stroke:none;fill-rule:nonzero;fill:rgb(100%,100%,100%);fill-opacity:1;" d="M 901.230469 428.53125 L 845.5625 579.171875 L 821.984375 579.171875 L 766.316406 428.53125 L 791.402344 428.53125 L 832.988281 548.585938 L 834.558594 548.585938 L 876.148438 428.53125 Z M 901.230469 428.53125 "/>
<path style=" stroke:none;fill-rule:nonzero;fill:rgb(100%,100%,100%);fill-opacity:1;" d="M 931.824219 579.171875 L 931.824219 428.53125 L 955.007812 428.53125 L 955.007812 579.171875 Z M 943.609375 403.382812 C 939.109375 403.382812 935.246094 401.859375 932.019531 398.796875 C 928.777344 395.753906 927.171875 392.050781 927.171875 387.730469 C 927.171875 383.40625 928.777344 379.722656 932.019531 376.660156 C 935.246094 373.566406 939.109375 372.011719 943.609375 372.011719 C 948.097656 372.011719 951.960938 373.566406 955.203125 376.660156 C 958.476562 379.722656 960.113281 383.40625 960.113281 387.730469 C 960.113281 392.050781 958.476562 395.753906 955.203125 398.796875 C 951.960938 401.859375 948.097656 403.382812 943.609375 403.382812 Z M 943.609375 403.382812 "/>
<path style=" stroke:none;fill-rule:nonzero;fill:rgb(100%,100%,100%);fill-opacity:1;" d="M 1054.25 582.316406 C 1041.675781 582.316406 1030.574219 579.140625 1020.980469 572.753906 C 1011.367188 566.386719 1003.851562 557.363281 998.449219 545.703125 C 993.03125 534.011719 990.328125 520.195312 990.328125 504.246094 C 990.328125 488.445312 993.03125 474.707031 998.449219 463.050781 C 1003.851562 451.390625 1011.382812 442.402344 1021.042969 436.066406 C 1030.738281 429.746094 1041.9375 426.566406 1054.640625 426.566406 C 1064.464844 426.566406 1072.226562 428.1875 1077.957031 431.414062 C 1083.671875 434.65625 1088.042969 438.324219 1091.054688 442.417969 C 1094.101562 446.480469 1096.492188 449.820312 1098.195312 452.4375 L 1100.160156 452.4375 L 1100.160156 378.296875 L 1123.277344 378.296875 L 1123.277344 579.171875 L 1100.945312 579.171875 L 1100.945312 556.054688 L 1098.195312 556.054688 C 1096.492188 558.769531 1094.066406 562.210938 1090.925781 566.402344 C 1087.78125 570.558594 1083.292969 574.246094 1077.5 577.46875 C 1071.6875 580.695312 1063.941406 582.316406 1054.25 582.316406 Z M 1057.394531 561.488281 C 1071.308594 561.488281 1081.984375 556.167969 1089.417969 545.507812 C 1096.835938 534.816406 1100.550781 520.929688 1100.550781 503.851562 C 1100.550781 487.003906 1096.882812 473.382812 1089.550781 462.984375 C 1082.214844 452.554688 1071.488281 447.332031 1057.394531 447.332031 C 1047.570312 447.332031 1039.398438 449.851562 1032.898438 454.863281 C 1026.382812 459.839844 1021.519531 466.617188 1018.292969 475.164062 C 1015.050781 483.679688 1013.449219 493.242188 1013.449219 503.851562 C 1013.449219 514.59375 1015.085938 524.335938 1018.359375 533.0625 C 1021.667969 541.757812 1026.578125 548.683594 1033.09375 553.824219 C 1039.59375 558.933594 1047.699219 561.488281 1057.394531 561.488281 Z M 1057.394531 561.488281 "/>
<path style=" stroke:none;fill-rule:nonzero;fill:rgb(100%,100%,100%);fill-opacity:1;" d="M 1263.734375 517.605469 L 1263.734375 428.53125 L 1286.855469 428.53125 L 1286.855469 579.171875 L 1263.734375 579.171875 L 1263.734375 553.695312 L 1262.164062 553.695312 C 1258.628906 561.339844 1253.125 567.824219 1245.660156 573.148438 C 1238.226562 578.484375 1228.828125 581.136719 1217.433594 581.136719 C 1203.320312 581.136719 1191.695312 576.472656 1182.527344 567.121094 C 1173.355469 557.789062 1168.773438 543.476562 1168.773438 524.222656 L 1168.773438 428.53125 L 1191.957031 428.53125 L 1191.957031 522.648438 C 1191.957031 533.652344 1195.035156 542.429688 1201.191406 548.980469 C 1207.378906 555.527344 1215.289062 558.804688 1224.898438 558.804688 C 1230.664062 558.804688 1236.523438 557.347656 1242.515625 554.414062 C 1248.492188 551.453125 1253.519531 546.933594 1257.578125 540.859375 C 1261.671875 534.75 1263.734375 527.003906 1263.734375 517.605469 Z M 1263.734375 517.605469 "/>
<path style=" stroke:none;fill-rule:nonzero;fill:rgb(100%,100%,100%);fill-opacity:1;" d="M 1435.976562 462.261719 L 1415.148438 468.15625 C 1413.136719 462.917969 1409.730469 458.007812 1404.933594 453.421875 C 1400.167969 448.835938 1392.71875 446.542969 1382.601562 446.542969 C 1373.382812 446.542969 1365.71875 448.671875 1359.613281 452.898438 C 1353.488281 457.136719 1350.441406 462.492188 1350.441406 468.945312 C 1350.441406 474.707031 1352.539062 479.257812 1356.730469 482.566406 C 1360.921875 485.890625 1367.4375 488.65625 1376.3125 490.882812 L 1398.710938 496.386719 C 1425.382812 502.9375 1438.726562 516.542969 1438.726562 537.191406 C 1438.726562 545.835938 1436.253906 553.5625 1431.324219 560.375 C 1426.382812 567.15625 1419.488281 572.492188 1410.628906 576.421875 C 1401.804688 580.351562 1391.539062 582.316406 1379.847656 582.316406 C 1364.476562 582.316406 1351.753906 578.976562 1341.667969 572.296875 C 1331.613281 565.617188 1325.261719 555.890625 1322.609375 543.085938 L 1344.550781 537.582031 C 1348.640625 553.792969 1360.285156 561.882812 1379.457031 561.882812 C 1390.230469 561.882812 1398.808594 559.589844 1405.195312 555.003906 C 1411.5625 550.386719 1414.757812 544.835938 1414.757812 538.367188 C 1414.757812 527.726562 1407.304688 520.667969 1392.421875 517.214844 L 1367.273438 511.320312 C 1353.519531 508.042969 1343.402344 502.96875 1336.953125 496.058594 C 1330.535156 489.164062 1327.324219 480.519531 1327.324219 470.121094 C 1327.324219 461.609375 1329.714844 454.109375 1334.527344 447.59375 C 1339.324219 441.042969 1345.890625 435.917969 1354.242188 432.199219 C 1362.574219 428.449219 1372.023438 426.566406 1382.601562 426.566406 C 1397.53125 426.566406 1409.253906 429.84375 1417.769531 436.390625 C 1426.28125 442.910156 1432.339844 451.523438 1435.976562 462.261719 Z M 1435.976562 462.261719 "/>
<path style=" stroke:none;fill-rule:nonzero;fill:rgb(100%,100%,100%);fill-opacity:1;" d="M 1551.265625 579.171875 L 1551.265625 428.53125 L 1573.664062 428.53125 L 1573.664062 451.261719 L 1575.238281 451.261719 C 1577.890625 443.84375 1582.832031 437.816406 1590.039062 433.183594 C 1597.242188 428.515625 1605.378906 426.175781 1614.464844 426.175781 C 1618.65625 426.175781 1622.292969 426.683594 1625.402344 427.679688 C 1628.546875 428.648438 1631.296875 429.972656 1633.65625 431.675781 L 1625.863281 451.261719 C 1624.191406 450.441406 1622.277344 449.785156 1620.097656 449.296875 C 1617.90625 448.769531 1615.382812 448.507812 1612.5 448.507812 C 1601.5 448.507812 1592.394531 451.882812 1585.191406 458.59375 C 1578.019531 465.277344 1574.449219 473.691406 1574.449219 483.8125 L 1574.449219 579.171875 Z M 1551.265625 579.171875 "/>
<path style=" stroke:none;fill-rule:nonzero;fill:rgb(100%,100%,100%);fill-opacity:1;" d="M 1720.386719 582.316406 C 1705.847656 582.316406 1693.339844 579.105469 1682.859375 572.6875 C 1672.382812 566.238281 1664.292969 557.199219 1658.628906 545.574219 C 1652.996094 533.964844 1650.179688 520.457031 1650.179688 505.03125 C 1650.179688 489.574219 1652.996094 475.953125 1658.628906 464.164062 C 1664.292969 452.375 1672.203125 443.171875 1682.335938 436.523438 C 1692.503906 429.890625 1704.40625 426.566406 1718.03125 426.566406 C 1725.890625 426.566406 1733.632812 427.878906 1741.28125 430.496094 C 1748.910156 433.117188 1755.882812 437.359375 1762.171875 443.203125 C 1768.457031 449.066406 1773.453125 456.792969 1777.167969 466.390625 C 1780.871094 476 1782.734375 487.839844 1782.734375 501.886719 L 1782.734375 511.710938 L 1673.429688 511.710938 C 1673.953125 527.792969 1678.488281 540.105469 1687.050781 548.652344 C 1695.648438 557.214844 1706.765625 561.488281 1720.386719 561.488281 C 1729.457031 561.488281 1737.285156 559.558594 1743.832031 555.660156 C 1750.382812 551.730469 1755.113281 545.835938 1758.046875 537.976562 L 1780.378906 544.265625 C 1776.839844 555.628906 1769.769531 564.8125 1759.160156 571.835938 C 1748.582031 578.828125 1735.664062 582.316406 1720.386719 582.316406 Z M 1673.429688 491.671875 L 1759.222656 491.671875 C 1759.222656 478.933594 1755.492188 468.355469 1748.023438 459.972656 C 1740.558594 451.554688 1730.554688 447.332031 1718.03125 447.332031 C 1709.203125 447.332031 1701.542969 449.410156 1695.042969 453.550781 C 1688.574219 457.660156 1683.484375 463.097656 1679.78125 469.859375 C 1676.066406 476.640625 1673.953125 483.910156 1673.429688 491.671875 Z M 1673.429688 491.671875 "/>
<path style=" stroke:none;fill-rule:nonzero;fill:rgb(100%,100%,100%);fill-opacity:1;" d="M 1924.785156 462.261719 L 1903.957031 468.15625 C 1901.941406 462.917969 1898.539062 458.007812 1893.742188 453.421875 C 1888.976562 448.835938 1881.527344 446.542969 1871.40625 446.542969 C 1862.191406 446.542969 1854.527344 448.671875 1848.421875 452.898438 C 1842.296875 457.136719 1839.25 462.492188 1839.25 468.945312 C 1839.25 474.707031 1841.347656 479.257812 1845.539062 482.566406 C 1849.730469 485.890625 1856.246094 488.65625 1865.121094 490.882812 L 1887.519531 496.386719 C 1914.191406 502.9375 1927.535156 516.542969 1927.535156 537.191406 C 1927.535156 545.835938 1925.0625 553.5625 1920.132812 560.375 C 1915.1875 567.15625 1908.296875 572.492188 1899.4375 576.421875 C 1890.613281 580.351562 1880.347656 582.316406 1868.65625 582.316406 C 1853.28125 582.316406 1840.5625 578.976562 1830.476562 572.296875 C 1820.421875 565.617188 1814.070312 555.890625 1811.417969 543.085938 L 1833.355469 537.582031 C 1837.449219 553.792969 1849.089844 561.882812 1868.265625 561.882812 C 1879.039062 561.882812 1887.617188 559.589844 1894.003906 555.003906 C 1900.371094 550.386719 1903.5625 544.835938 1903.5625 538.367188 C 1903.5625 527.726562 1896.113281 520.667969 1881.230469 517.214844 L 1856.082031 511.320312 C 1842.328125 508.042969 1832.210938 502.96875 1825.761719 496.058594 C 1819.339844 489.164062 1816.132812 480.519531 1816.132812 470.121094 C 1816.132812 461.609375 1818.523438 454.109375 1823.335938 447.59375 C 1828.132812 441.042969 1834.699219 435.917969 1843.050781 432.199219 C 1851.382812 428.449219 1860.832031 426.566406 1871.40625 426.566406 C 1886.339844 426.566406 1898.0625 429.84375 1906.578125 436.390625 C 1915.089844 442.910156 1921.148438 451.523438 1924.785156 462.261719 Z M 1924.785156 462.261719 "/>
<path style=" stroke:none;fill-rule:nonzero;fill:rgb(100%,100%,100%);fill-opacity:1;" d="M 2025.597656 582.316406 C 2011.058594 582.316406 1998.550781 579.105469 1988.070312 572.6875 C 1977.59375 566.238281 1969.503906 557.199219 1963.839844 545.574219 C 1958.207031 533.964844 1955.390625 520.457031 1955.390625 505.03125 C 1955.390625 489.574219 1958.207031 475.953125 1963.839844 464.164062 C 1969.503906 452.375 1977.414062 443.171875 1987.546875 436.523438 C 1997.714844 429.890625 2009.617188 426.566406 2023.242188 426.566406 C 2031.101562 426.566406 2038.84375 427.878906 2046.492188 430.496094 C 2054.121094 433.117188 2061.09375 437.359375 2067.382812 443.203125 C 2073.667969 449.066406 2078.664062 456.792969 2082.378906 466.390625 C 2086.082031 476 2087.945312 487.839844 2087.945312 501.886719 L 2087.945312 511.710938 L 1978.640625 511.710938 C 1979.164062 527.792969 1983.699219 540.105469 1992.261719 548.652344 C 2000.859375 557.214844 2011.976562 561.488281 2025.597656 561.488281 C 2034.667969 561.488281 2042.496094 559.558594 2049.042969 555.660156 C 2055.59375 551.730469 2060.324219 545.835938 2063.257812 537.976562 L 2085.589844 544.265625 C 2082.050781 555.628906 2074.980469 564.8125 2064.371094 571.835938 C 2053.792969 578.828125 2040.875 582.316406 2025.597656 582.316406 Z M 1978.640625 491.671875 L 2064.433594 491.671875 C 2064.433594 478.933594 2060.703125 468.355469 2053.234375 459.972656 C 2045.769531 451.554688 2035.765625 447.332031 2023.242188 447.332031 C 2014.414062 447.332031 2006.753906 449.410156 2000.253906 453.550781 C 1993.785156 457.660156 1988.695312 463.097656 1984.992188 469.859375 C 1981.277344 476.640625 1979.164062 483.910156 1978.640625 491.671875 Z M 1978.640625 491.671875 "/>
<path style=" stroke:none;fill-rule:nonzero;fill:rgb(100%,100%,100%);fill-opacity:1;" d="M 2167.582031 582.710938 C 2158.050781 582.710938 2149.390625 580.890625 2141.582031 577.273438 C 2133.804688 573.65625 2127.628906 568.398438 2123.046875 561.488281 C 2118.496094 554.59375 2116.234375 546.230469 2116.234375 536.402344 C 2116.234375 527.757812 2117.90625 520.75 2121.277344 515.378906 C 2124.683594 509.976562 2129.21875 505.734375 2134.898438 502.675781 C 2140.613281 499.628906 2146.917969 497.335938 2153.828125 495.796875 C 2160.71875 494.226562 2167.664062 492.980469 2174.652344 492.0625 C 2183.824219 490.882812 2191.253906 490 2196.988281 489.378906 C 2202.699219 488.773438 2206.875 487.722656 2209.496094 486.234375 C 2212.148438 484.710938 2213.492188 482.09375 2213.492188 478.375 L 2213.492188 477.589844 C 2213.492188 467.894531 2210.835938 460.363281 2205.566406 454.992188 C 2200.328125 449.621094 2192.371094 446.9375 2181.726562 446.9375 C 2170.675781 446.9375 2162.015625 449.359375 2155.726562 454.207031 C 2149.4375 459.054688 2145.019531 464.226562 2142.496094 469.730469 L 2120.558594 461.871094 C 2124.4375 452.699219 2129.660156 445.5625 2136.210938 440.453125 C 2142.792969 435.3125 2149.996094 431.710938 2157.824219 429.644531 C 2165.632812 427.597656 2173.34375 426.566406 2180.941406 426.566406 C 2185.789062 426.566406 2191.355469 427.140625 2197.640625 428.269531 C 2203.960938 429.417969 2210.085938 431.742188 2215.980469 435.277344 C 2221.90625 438.816406 2226.851562 444.152344 2230.78125 451.261719 C 2234.710938 458.382812 2236.675781 467.945312 2236.675781 479.945312 L 2236.675781 579.171875 L 2213.492188 579.171875 L 2213.492188 558.804688 L 2212.3125 558.804688 C 2210.738281 562.046875 2208.121094 565.535156 2204.453125 569.28125 C 2200.816406 573 2195.953125 576.160156 2189.847656 578.78125 C 2183.773438 581.398438 2176.355469 582.710938 2167.582031 582.710938 Z M 2171.117188 561.882812 C 2180.285156 561.882812 2188.015625 560.097656 2194.300781 556.511719 C 2200.621094 552.941406 2205.402344 548.308594 2208.644531 542.625 C 2211.871094 536.910156 2213.492188 530.902344 2213.492188 524.613281 L 2213.492188 503.460938 C 2212.523438 504.640625 2210.378906 505.71875 2207.070312 506.667969 C 2203.75 507.585938 2199.949219 508.40625 2195.675781 509.09375 C 2191.386719 509.796875 2187.246094 510.386719 2183.234375 510.859375 C 2179.207031 511.351562 2175.964844 511.761719 2173.476562 512.105469 C 2167.449219 512.890625 2161.832031 514.167969 2156.644531 515.902344 C 2151.4375 517.605469 2147.246094 520.195312 2144.070312 523.632812 C 2140.925781 527.039062 2139.355469 531.6875 2139.355469 537.582031 C 2139.355469 545.621094 2142.332031 551.699219 2148.324219 555.789062 C 2154.300781 559.851562 2161.898438 561.882812 2171.117188 561.882812 Z M 2171.117188 561.882812 "/>
<path style=" stroke:none;fill-rule:nonzero;fill:rgb(100%,100%,100%);fill-opacity:1;" d="M 2278.984375 579.171875 L 2278.984375 428.53125 L 2301.382812 428.53125 L 2301.382812 451.261719 L 2302.957031 451.261719 C 2305.609375 443.84375 2310.554688 437.816406 2317.757812 433.183594 C 2324.960938 428.515625 2333.097656 426.175781 2342.1875 426.175781 C 2346.378906 426.175781 2350.011719 426.683594 2353.121094 427.679688 C 2356.265625 428.648438 2359.015625 429.972656 2361.375 431.675781 L 2353.582031 451.261719 C 2351.910156 450.441406 2349.996094 449.785156 2347.816406 449.296875 C 2345.625 448.769531 2343.101562 448.507812 2340.222656 448.507812 C 2329.21875 448.507812 2320.113281 451.882812 2312.910156 458.59375 C 2305.738281 465.277344 2302.171875 473.691406 2302.171875 483.8125 L 2302.171875 579.171875 Z M 2278.984375 579.171875 "/>
<path style=" stroke:none;fill-rule:nonzero;fill:rgb(100%,100%,100%);fill-opacity:1;" d="M 2446.140625 582.316406 C 2431.996094 582.316406 2419.816406 578.976562 2409.597656 572.296875 C 2399.414062 565.617188 2391.585938 556.429688 2386.085938 544.722656 C 2380.617188 533.03125 2377.898438 519.671875 2377.898438 504.640625 C 2377.898438 489.3125 2380.714844 475.804688 2386.347656 464.097656 C 2392.011719 452.355469 2399.921875 443.171875 2410.054688 436.523438 C 2420.222656 429.890625 2432.128906 426.566406 2445.75 426.566406 C 2456.359375 426.566406 2465.886719 428.53125 2474.371094 432.460938 C 2482.882812 436.390625 2489.84375 441.894531 2495.261719 448.96875 C 2500.664062 456.007812 2504.039062 464.226562 2505.347656 473.660156 L 2482.230469 473.660156 C 2480.476562 466.765625 2476.5625 460.660156 2470.503906 455.320312 C 2464.480469 450 2456.359375 447.332031 2446.140625 447.332031 C 2432.601562 447.332031 2421.679688 452.488281 2413.398438 462.789062 C 2405.144531 473.101562 2401.019531 486.792969 2401.019531 503.851562 C 2401.019531 521.324219 2405.09375 535.289062 2413.265625 545.769531 C 2421.417969 556.25 2432.390625 561.488281 2446.140625 561.488281 C 2455.179688 561.488281 2462.910156 559.179688 2469.328125 554.546875 C 2475.777344 549.929688 2480.082031 543.476562 2482.230469 535.226562 L 2505.347656 535.226562 C 2504.039062 544.132812 2500.796875 552.15625 2495.65625 559.261719 C 2490.546875 566.335938 2483.765625 571.953125 2475.351562 576.09375 C 2466.96875 580.238281 2457.226562 582.316406 2446.140625 582.316406 Z M 2446.140625 582.316406 "/>
<path style=" stroke:none;fill-rule:nonzero;fill:rgb(100%,100%,100%);fill-opacity:1;" d="M 2562.265625 488.527344 L 2562.265625 579.171875 L 2539.082031 579.171875 L 2539.082031 378.296875 L 2562.265625 378.296875 L 2562.265625 452.046875 L 2564.230469 452.046875 C 2567.769531 444.285156 2573.074219 438.09375 2580.144531 433.511719 C 2587.25 428.894531 2596.730469 426.566406 2608.570312 426.566406 C 2623.976562 426.566406 2636.371094 431.21875 2645.769531 440.519531 C 2655.199219 449.785156 2659.914062 464.082031 2659.914062 483.417969 L 2659.914062 579.171875 L 2636.796875 579.171875 L 2636.796875 484.988281 C 2636.796875 473.039062 2633.683594 463.769531 2627.496094 457.21875 C 2621.339844 450.636719 2612.792969 447.332031 2601.890625 447.332031 C 2590.445312 447.332031 2580.964844 450.917969 2573.464844 458.070312 C 2566 465.242188 2562.265625 475.394531 2562.265625 488.527344 Z M 2562.265625 488.527344 "/>
<g clip-path="url(#clip1)" clip-rule="nonzero">
<path style=" stroke:none;fill-rule:nonzero;fill:rgb(14.117647%,65.882353%,60.784314%);fill-opacity:1;" d="M 1469.996094 499.125 L 1505.3125 499.125 L 1505.3125 534.445312 L 1469.996094 534.445312 Z M 1469.996094 499.125 "/>
</g>
</g>
</svg>
